<svg width="77" height="24" viewBox="0 0 77 24" fill="none" xmlns="http://www.w3.org/2000/svg">
<g clip-path="url(#clip0_471_2542)">
<path fill-rule="evenodd" clip-rule="evenodd" d="M12.0253 10.5413C13.6612 11.5888 14.6523 13.5562 14.2678 15.7158C13.9164 17.6848 12.3303 19.3058 10.3712 19.7168C7.13918 20.3964 4.27016 17.8721 4.27016 14.7495V7.07723V4.17177C4.27016 1.86793 2.40223 0 0.0983887 0V14.7893H0.100046C0.101704 20.5058 5.27125 24.9892 11.2165 23.8107C14.7054 23.1196 17.5429 20.3268 18.2971 16.8511C19.5965 10.8645 15.0717 5.57725 9.31043 5.57725C9.31043 7.58606 10.3331 9.45731 12.0253 10.5413Z" fill="url(#paint0_linear_471_2542)"/>
<path fill-rule="evenodd" clip-rule="evenodd" d="M48.7231 6.9018C49.8751 6.9018 50.8795 7.12721 51.738 7.57803C52.5966 8.03051 53.2827 8.59238 53.7966 9.2653V7.14047H55.1921C56.107 7.14047 56.8496 7.883 56.8496 8.79791V21.7723H53.7966V19.5945C53.2827 20.2856 52.5833 20.8607 51.6982 21.3198C50.8132 21.7806 49.8038 22.011 48.6701 22.011C47.4138 22.011 46.2635 21.6878 45.2193 21.0414C44.1735 20.395 43.3464 19.4934 42.7365 18.3331C42.1249 17.1746 41.8199 15.8586 41.8199 14.3901C41.8199 12.92 42.1249 11.6189 42.7365 10.4868C43.3464 9.35315 44.1784 8.47305 45.2326 7.84488C46.285 7.21671 47.4486 6.9018 48.7231 6.9018ZM26.5282 2.12158C27.4448 2.12158 28.1857 2.86411 28.1857 3.77902V9.31818C28.6995 8.61045 29.4039 8.03035 30.2972 7.57787C31.1906 7.12704 32.1867 6.90163 33.2839 6.90163C34.5767 6.90163 35.7452 7.21157 36.7894 7.83146C37.8336 8.45134 38.6574 9.33144 39.259 10.4734C39.8607 11.6154 40.1623 12.9198 40.1623 14.3899C40.1623 15.8601 39.8607 17.1744 39.259 18.333C38.6574 19.4932 37.8303 20.3948 36.7762 21.0412C35.7237 21.6876 34.5585 22.0108 33.2839 22.0108C32.1519 22.0108 31.1475 21.7887 30.2707 21.3462C29.3939 20.9053 28.6995 20.3385 28.1857 19.6473V21.7722H25.1592V2.12158H26.5282ZM76.5742 7.1403V21.7722H73.5477V7.1403H76.5742ZM65.8899 6.9023C67.0401 6.9023 68.0711 7.14097 68.9827 7.61831C69.8942 8.09565 70.607 8.80503 71.1208 9.74314C71.6329 10.6813 71.8898 11.8133 71.8898 13.1425V21.7712H70.5473C69.6324 21.7712 68.8898 21.0303 68.8898 20.1137V13.5934C68.8898 12.284 68.5617 11.2779 67.907 10.5785C67.2523 9.88071 66.3573 9.53099 65.2253 9.53099C64.0916 9.53099 63.1932 9.88071 62.5303 10.5785C61.8656 11.2779 61.5341 12.284 61.5341 13.5934V21.7712H58.5077V7.14097H61.5341V8.81332C62.0297 8.21167 62.6629 7.74262 63.4336 7.40616C64.2026 7.0697 65.0214 6.9023 65.8899 6.9023ZM49.3613 9.53049C48.5823 9.53049 47.8563 9.7211 47.1834 10.1007C46.5105 10.4819 45.9668 11.0404 45.5508 11.7747C45.1348 12.5089 44.9259 13.3807 44.9259 14.3901C44.9259 15.3995 45.1348 16.2846 45.5508 17.0453C45.9668 17.8061 46.5154 18.3862 47.1966 18.784C47.8778 19.1834 48.6005 19.3823 49.3613 19.3823C50.1402 19.3823 50.8662 19.1867 51.5391 18.7972C52.212 18.4094 52.7557 17.8376 53.1717 17.0851C53.5877 16.3326 53.7966 15.4525 53.7966 14.4431C53.7966 13.4338 53.5877 12.557 53.1717 11.8144C52.7557 11.0703 52.212 10.5034 51.5391 10.1139C50.8662 9.72607 50.1402 9.53049 49.3613 9.53049ZM32.621 9.53033C31.8602 9.53033 31.1376 9.72591 30.4564 10.1137C29.7751 10.5032 29.2265 11.0701 28.8105 11.8143C28.3945 12.5568 28.1857 13.4336 28.1857 14.443C28.1857 15.4524 28.3945 16.3325 28.8105 17.0849C29.2265 17.8374 29.7751 18.4092 30.4564 18.7971C31.1376 19.1866 31.8602 19.3821 32.621 19.3821C33.4 19.3821 34.1292 19.1832 34.8121 18.7838C35.4933 18.386 36.0419 17.8059 36.4579 17.0452C36.8739 16.2844 37.0828 15.3993 37.0828 14.3899C37.0828 13.3806 36.8739 12.5087 36.4579 11.7745C36.0419 11.0403 35.4933 10.4817 34.8121 10.1005C34.1292 9.72093 33.4 9.53033 32.621 9.53033ZM74.9174 2.12158C75.8187 2.12158 76.5527 2.84211 76.5744 3.73817L76.5749 3.77902V5.14806H73.5484V2.12158H74.9174Z" fill="black"/>
</g>
<defs>
<linearGradient id="paint0_linear_471_2542" x1="3.88206" y1="3.25456e-07" x2="19.4992" y2="20.3449" gradientUnits="userSpaceOnUse">
<stop stop-color="#00B0FF"/>
<stop offset="0.524899" stop-color="#3D5AFE"/>
<stop offset="1" stop-color="#5444F2"/>
</linearGradient>
<clipPath id="clip0_471_2542">
<rect width="76.5083" height="24" fill="white" transform="translate(0.0983887)"/>
</clipPath>
</defs>
</svg>
