<svg width="154" height="24" viewBox="0 0 154 24" fill="none" xmlns="http://www.w3.org/2000/svg">
<g clip-path="url(#clip0_457_2640)">
<path d="M50.0878 5.60608H47.3973V19.3559H50.0878V5.60608Z" fill="#2A3362"/>
<path d="M60.5157 14.4796C60.5157 16.3704 59.279 17.2329 57.6413 17.2329C56.0036 17.2329 54.9007 16.387 54.9007 14.5791V9.66968H52.2102V15.1928C52.2102 17.9461 53.9482 19.555 56.8392 19.555C58.6607 19.555 59.6634 18.8915 60.3486 18.1451H60.499L60.7329 19.3725H63.2062V9.66968H60.5157V14.4796Z" fill="#2A3362"/>
<path d="M86.9193 17.4486C84.9473 17.4486 83.8444 16.553 83.6606 15.2592H92.2C92.2334 14.9939 92.2669 14.7119 92.2501 14.4465C92.2334 10.9635 89.5763 9.4873 86.7354 9.4873C83.4433 9.4873 80.9534 11.4445 80.9534 14.5958C80.9534 17.5979 83.3264 19.555 86.9026 19.555C89.8939 19.555 91.8825 18.2447 92.2836 16.2212H89.6265C89.3257 17.0174 88.3731 17.4486 86.9193 17.4486ZM86.7522 11.5937C88.4734 11.5937 89.4594 12.3567 89.6265 13.4182H83.7274C83.9781 12.3899 84.9808 11.5937 86.7522 11.5937Z" fill="#2A3362"/>
<path d="M96.8458 11.0629H96.6787L96.428 9.66968H93.9882V19.3559H96.6787V15.1928C96.6787 13.3186 97.7649 12.2737 99.8037 12.2737C100.171 12.2737 100.539 12.3069 100.907 12.3732V9.66968H100.539C98.7174 9.66968 97.6145 10.0512 96.8458 11.0629Z" fill="#2A3362"/>
<path d="M114.108 16.3373H113.958L111.652 10.2834H108.878L106.622 16.3207H106.438L104.299 9.66968H101.625L104.917 19.3559H107.842L110.181 13.1859H110.348L112.655 19.3559H115.596L118.888 9.66968H116.214L114.108 16.3373Z" fill="#2A3362"/>
<path d="M129.6 16.5364V13.3021C129.6 10.6649 127.36 9.4873 124.57 9.4873C121.612 9.4873 119.757 10.8805 119.506 12.9704H122.197C122.397 12.0581 123.166 11.5606 124.57 11.5606C125.973 11.5606 126.909 12.0913 126.909 13.1528V13.4016L122.514 13.7333C120.492 13.8826 119.005 14.7783 119.005 16.6856C119.005 18.6428 120.709 19.5716 123.199 19.5716C125.221 19.5716 126.441 19.0077 127.193 18.1784H127.327C127.745 19.1238 128.614 19.3892 129.533 19.3892H130.669V17.4154H130.419C129.867 17.3823 129.6 17.1169 129.6 16.5364ZM126.909 15.508C126.909 17.034 125.071 17.5481 123.5 17.5481C122.431 17.5481 121.729 17.2827 121.729 16.5364C121.729 15.8729 122.33 15.5578 123.233 15.4749L126.926 15.2095L126.909 15.508Z" fill="#2A3362"/>
<path d="M139.56 9.66968L136.418 16.6856H136.251L133.059 9.66968H130.151L134.697 19.3559H137.922L142.451 9.66968H139.56Z" fill="#2A3362"/>
<path d="M151.057 16.2212C150.723 17.0174 149.77 17.4486 148.333 17.4486C146.361 17.4486 145.258 16.553 145.074 15.2592H153.614C153.647 14.9939 153.681 14.7119 153.664 14.4465C153.647 10.9635 150.99 9.4873 148.149 9.4873C144.857 9.4873 142.384 11.4445 142.384 14.5958C142.384 17.5979 144.757 19.555 148.333 19.555C151.324 19.555 153.313 18.2447 153.714 16.2212H151.057ZM148.149 11.5937C149.87 11.5937 150.856 12.3567 151.023 13.4182H145.124C145.375 12.3899 146.361 11.5937 148.149 11.5937Z" fill="#2A3362"/>
<path d="M43.0357 8.95646C43.0357 8.11057 43.6373 7.74568 44.4227 7.74568C44.7904 7.74568 45.1413 7.79544 45.4922 7.89495L45.9434 5.95439C45.2917 5.72218 44.6065 5.60608 43.9214 5.60608C41.9327 5.60608 40.3285 6.651 40.3285 8.82377V9.66966H38.0056V11.7927H40.3285V19.3559H43.0357V11.7927H46.0771V9.66966H43.0357V8.95646Z" fill="#2A3362"/>
<path d="M69.172 6.94958H66.6653L66.5316 9.68628H64.4093V11.8093H66.4815V16.5861C66.4815 18.2115 67.3171 19.5716 69.8237 19.5716C70.4755 19.5716 71.1272 19.5052 71.7622 19.3559V17.3159C71.3946 17.3988 71.0269 17.4485 70.6426 17.4485C69.3057 17.4485 69.172 16.6856 69.172 16.1051V11.7927H71.8458V9.6697H69.172V6.94958Z" fill="#2A3362"/>
<path d="M77.6279 6.94958H75.138L75.0043 9.68628H72.882V11.8093H74.9541V16.5861C74.9541 18.2115 75.7897 19.5716 78.2964 19.5716C78.9481 19.5716 79.5831 19.4886 80.2182 19.3559V17.3159C79.8505 17.3988 79.4829 17.4485 79.0985 17.4485C77.7616 17.4485 77.6279 16.6856 77.6279 16.1051V11.7927H80.3017V9.6697H77.6112V6.94958H77.6279Z" fill="#2A3362"/>
<path d="M0.522461 5.24117C0.522461 3.68208 0.973663 2.35519 1.94291 1.40979L3.61403 3.06839C1.75909 4.90944 3.38007 10.6316 8.67752 15.8894C13.975 21.1472 19.7403 22.756 21.5953 20.915L23.2664 22.5736C20.1247 25.6918 12.989 23.4692 7.0064 17.548C2.86203 13.4181 0.522461 8.75741 0.522461 5.24117Z" fill="#009A46"/>
<path d="M11.0672 24C9.49634 24 8.15945 23.5522 7.20691 22.5902L8.87803 20.9316C10.733 22.7726 16.4983 21.1638 21.7958 15.906C27.0932 10.6482 28.7142 4.92605 26.8593 3.085L28.5304 1.42639C31.6721 4.54457 29.4328 11.6268 23.4669 17.5646C19.3058 21.6779 14.5933 24 11.0672 24Z" fill="#FF5805"/>
<path d="M24.0016 15.1928C22.9823 12.2902 20.9101 9.18865 18.1694 6.46854C12.1868 0.530734 5.05116 -1.67521 1.90945 1.42638C1.69221 1.65859 1.89274 2.20592 2.34394 2.65375C2.79515 3.10157 3.36333 3.3006 3.58057 3.08498C5.43551 1.24393 11.2009 2.85278 16.4983 8.11055C19.005 10.5985 20.8767 13.3849 21.7791 15.9558C22.5645 18.2115 22.4976 20.0359 21.5785 20.9482C21.3613 21.1638 21.5451 21.7111 22.013 22.1755C22.4809 22.6399 23.0324 22.8224 23.2496 22.6068C24.8539 20.9979 25.1213 18.3607 24.0016 15.1928Z" fill="#F5AFCB"/>
<path d="M28.5136 1.42644C26.9094 -0.165823 24.2523 -0.4312 21.0605 0.663479C18.136 1.67523 15.011 3.7319 12.2704 6.45201C6.28777 12.3898 4.06518 19.472 7.20688 22.5902C7.42413 22.8058 7.99231 22.6234 8.44351 22.159C8.89471 21.6946 9.09525 21.1472 8.878 20.9316C7.02306 19.0906 8.64404 13.3684 13.9415 8.11061C16.4482 5.62271 19.2556 3.76507 21.8292 2.86942C24.1019 2.08988 25.9401 2.15622 26.8592 3.06845C27.0765 3.28407 27.628 3.10163 28.0959 2.63722C28.5638 2.17281 28.7476 1.65864 28.5136 1.42644Z" fill="#FF9B00"/>
</g>
<defs>
<clipPath id="clip0_457_2640">
<rect width="153.191" height="24" fill="white" transform="translate(0.522461)"/>
</clipPath>
</defs>
</svg>
