<svg width="57" height="24" viewBox="0 0 57 24" fill="none" xmlns="http://www.w3.org/2000/svg">
<mask id="mask0_457_2600" style="mask-type:luminance" maskUnits="userSpaceOnUse" x="0" y="0" width="57" height="24">
<path d="M0.713989 0H56.2081V24H0.713989V0Z" fill="white"/>
</mask>
<g mask="url(#mask0_457_2600)">
<path d="M17.1039 0.053307L3.86215 1.56952e-06H3.84961C3.43798 -0.00041047 3.03031 0.0803095 2.64989 0.237547C2.26948 0.394784 1.92379 0.625456 1.63258 0.916374C1.34137 1.20729 1.11035 1.55275 0.952735 1.93301C0.795117 2.31326 0.713989 2.72085 0.71399 3.13248V19.7857C0.713825 20.197 0.794699 20.6043 0.951992 20.9843C1.10928 21.3643 1.33991 21.7096 1.6307 22.0004C1.92148 22.2913 2.26673 22.522 2.6467 22.6793C3.02668 22.8367 3.43394 22.9177 3.84522 22.9176H3.86215L17.1101 22.8756V22.0766C17.1108 18.1411 15.6205 14.3515 12.9391 11.4707C15.6288 8.58989 17.1183 4.7916 17.1039 0.85038V0.053307ZM6.957 7.35678C5.34404 6.70018 4.05593 6.57852 2.31629 6.4901V6.46062C3.52883 6.27743 4.64942 5.70644 5.5103 4.83312C6.37119 3.9598 6.92605 2.83114 7.09183 1.6161L9.99039 1.62864C9.79599 3.94461 8.71232 5.8335 6.95637 7.35678H6.957ZM2.76782 2.04944C3.05428 1.76314 3.44272 1.6023 3.84772 1.6023L5.17283 1.6161C5.17283 2.23005 4.84109 2.99514 4.28044 3.56645C3.72042 4.13901 2.95721 4.45885 2.33197 4.45885L2.31692 3.12684C2.31703 2.92629 2.35701 2.72777 2.43452 2.54281C2.51204 2.35785 2.62555 2.19015 2.76845 2.04944H2.76782ZM2.31629 16.4814V13.5985C4.40774 13.7967 6.14488 14.3392 7.62489 15.8286C9.10552 17.3174 9.79285 19.1862 9.97973 21.2846L7.08995 21.2927C6.91837 20.084 6.36101 18.963 5.50086 18.0966C4.6407 17.2302 3.52375 16.6648 2.31629 16.4846V16.4814ZM3.86215 21.3165C3.6612 21.3165 3.46222 21.277 3.27657 21.2001C3.09092 21.1232 2.92224 21.0105 2.78015 20.8684C2.63806 20.7263 2.52534 20.5576 2.44845 20.3719C2.37155 20.1863 2.33197 19.9873 2.33197 19.7864V18.5045C2.94404 18.5045 3.7223 18.8262 4.28232 19.395C4.84109 19.9638 5.17346 20.7333 5.17346 21.2915L3.86215 21.3165ZM15.1491 21.2821L12.0405 21.2915C11.8478 18.7741 10.7621 16.4084 8.97911 14.6209C7.19611 12.8334 4.83315 11.7418 2.31629 11.5428L2.33134 8.36457C5.75794 8.57403 8.54299 9.83329 10.9693 12.2659C13.3957 14.6985 14.9484 17.858 15.1479 21.2902L15.1491 21.2821ZM11.4177 10.0315C10.541 9.26386 9.95904 8.91957 8.93683 8.36018C10.7505 6.56898 11.8501 4.17885 12.0304 1.63617L14.9854 1.62864C14.8111 4.87087 13.6283 7.65216 11.4171 10.0321L11.4177 10.0315Z" fill="#2376F3"/>
<path d="M22.3993 17.4623H24.8074V14.9989L26.0303 13.665L28.2723 17.4623H30.9953L27.7537 12.0345L30.9219 8.40222H28.0685L24.8451 12.2013H24.8074V5.28918H22.3993V17.4623Z" fill="#3E4B5B"/>
<path d="M35.4014 17.629C38.2178 17.629 40.2002 15.7025 40.2002 12.9419C40.2002 10.1619 38.2178 8.27298 35.4014 8.27298C32.5116 8.27298 30.5839 10.2365 30.5839 12.9419C30.5839 15.6473 32.5091 17.629 35.4014 17.629ZM35.4014 15.4423C34.0123 15.4423 33.0485 14.3498 33.0485 12.9419C33.0485 11.5146 33.9929 10.4397 35.4014 10.4397C36.7353 10.4397 37.7362 11.4594 37.7362 12.9419C37.7362 14.4244 36.6983 15.4423 35.4014 15.4423ZM41.3616 17.4622H43.7886V13.2755C43.7886 11.904 44.5863 10.9038 46.087 10.9038C46.235 10.9038 46.4764 10.9038 46.7354 10.922V8.27173H46.5498C45.4943 8.27173 44.5116 8.79663 43.8268 9.71787H43.7892V8.40217H41.3622V17.4622H41.3616ZM51.1322 17.629C52.3174 17.629 53.2255 17.1844 53.8551 16.3704L53.8921 16.3892V17.4635H56.2081V8.40217H53.7811V9.44445L53.7435 9.46326C53.0957 8.68438 52.1318 8.278 51.0764 8.278C48.6494 8.278 46.8151 10.2221 46.8151 12.9651C46.8151 15.7621 48.6494 17.6334 51.1322 17.6334V17.6297V17.629ZM51.595 15.4466C50.2235 15.4466 49.279 14.4276 49.279 12.9827C49.279 11.4268 50.2799 10.4441 51.595 10.4441C52.8919 10.4441 53.8921 11.519 53.8921 12.9827C53.8921 14.4658 52.8367 15.4473 51.595 15.4473V15.4466Z" fill="#3E4B5B"/>
</g>
</svg>
