<svg width="136" height="24" viewBox="0 0 136 24" fill="none" xmlns="http://www.w3.org/2000/svg">
<g clip-path="url(#clip0_457_2617)">
<path d="M19.317 2.30396H1.11347C0.532503 2.30396 -4.81345e-05 2.78395 -4.81345e-05 3.40795V5.42396C-4.81345e-05 6.04796 0.532503 6.57595 1.11347 6.57595H19.317C19.9464 6.57595 20.4306 6.04796 20.479 5.42396V3.45595C20.479 2.78395 19.9464 2.30396 19.317 2.30396ZM19.317 13.632H1.11347C0.822986 13.632 0.532503 13.776 0.290435 13.968C0.0967794 14.16 -0.0484619 14.448 -0.0484619 14.784V16.8C-0.0484619 17.424 0.48409 17.952 1.06505 17.952H19.2686C19.898 17.952 20.3822 17.472 20.4306 16.8V14.784C20.479 14.112 19.9464 13.632 19.317 13.632ZM11.3772 19.248H1.11347C0.822986 19.248 0.532503 19.344 0.338848 19.584C0.145193 19.776 -4.81345e-05 20.064 -4.81345e-05 20.4V22.416C-4.81345e-05 23.04 0.532503 23.568 1.11347 23.568H11.3288C11.9582 23.568 12.4423 23.04 12.4423 22.416V20.352C12.4907 19.776 12.0066 19.248 11.3772 19.248ZM20.479 7.96796H1.11347C0.822986 7.96796 0.532503 8.06395 0.338848 8.30396C0.145193 8.49595 -4.81345e-05 8.78396 -4.81345e-05 9.11996V11.136C-4.81345e-05 11.76 0.532503 12.288 1.11347 12.288H20.4306C21.0599 12.288 21.5441 11.76 21.5441 11.136V9.11996C21.5925 8.44796 21.1084 7.96796 20.479 7.96796Z" fill="#00C3F7"/>
<path d="M41.6358 6.864C41.0549 6.288 40.4255 5.856 39.6509 5.52C38.9247 5.184 38.1016 5.04 37.2786 5.04C36.504 5.04 35.7294 5.184 35.0032 5.52C34.519 5.76 34.0833 6.048 33.7444 6.432V6.096C33.7444 5.904 33.6476 5.76 33.5507 5.616C33.4055 5.472 33.2603 5.376 33.0666 5.376H30.5007C30.307 5.376 30.1134 5.472 30.0165 5.616C29.8713 5.76 29.8229 5.904 29.8229 6.096V22.896C29.8229 23.088 29.9197 23.232 30.0165 23.376C30.1618 23.52 30.307 23.568 30.5007 23.568H33.0666C33.2603 23.568 33.4055 23.52 33.5507 23.376C33.696 23.232 33.7444 23.088 33.7444 22.896V17.136C34.1317 17.52 34.5674 17.856 35.1 18C35.7778 18.24 36.504 18.384 37.1818 18.384C38.0048 18.384 38.8278 18.24 39.554 17.904C40.3287 17.616 41.0065 17.136 41.539 16.56C42.12 15.936 42.6041 15.216 42.8946 14.448C43.2335 13.584 43.4271 12.624 43.3787 11.712C43.3787 10.752 43.2335 9.84 42.8946 8.928C42.7009 8.208 42.2168 7.488 41.6358 6.864ZM39.3604 12.96C39.2152 13.296 39.0215 13.632 38.7794 13.92C38.2469 14.496 37.5207 14.784 36.746 14.784C36.3587 14.784 35.9714 14.688 35.6325 14.544C35.2936 14.4 34.9547 14.16 34.7127 13.92C34.4706 13.632 34.2285 13.296 34.0833 12.96C33.7928 12.192 33.7928 11.376 34.0833 10.608C34.2285 10.272 34.4222 9.936 34.7127 9.648C35.0031 9.36 35.2936 9.168 35.6325 8.976C35.9714 8.832 36.3587 8.736 36.746 8.736C37.1334 8.736 37.5207 8.832 37.908 8.976C38.2469 9.12 38.5374 9.36 38.8278 9.6C39.0699 9.888 39.2636 10.176 39.4088 10.56C39.6509 11.328 39.6509 12.192 39.3604 12.96ZM57.3703 5.424H54.8044C54.6107 5.424 54.4655 5.52 54.3202 5.616C54.175 5.76 54.1266 5.952 54.1266 6.144V6.432C53.7877 6.048 53.4004 5.76 52.9647 5.568C52.2869 5.232 51.5123 5.088 50.7376 5.088C49.0916 5.088 47.4939 5.76 46.332 6.912C45.751 7.536 45.2669 8.256 44.928 9.024C44.5407 9.888 44.3954 10.848 44.3954 11.808C44.3954 12.768 44.5407 13.728 44.928 14.592C45.2669 15.36 45.751 16.08 46.332 16.704C47.4939 17.856 49.0431 18.528 50.6892 18.528C51.4638 18.528 52.2385 18.384 52.9163 18.048C53.352 17.808 53.7877 17.52 54.0782 17.184V17.52C54.0782 17.712 54.175 17.856 54.2718 18C54.4171 18.096 54.5623 18.192 54.756 18.192H57.3219C57.5156 18.192 57.6608 18.096 57.806 18C57.9513 17.856 57.9997 17.712 57.9997 17.52V6.144C57.9997 5.952 57.9513 5.808 57.806 5.664C57.7092 5.472 57.564 5.424 57.3703 5.424ZM53.8845 12.912C53.7393 13.248 53.5456 13.584 53.3036 13.872C53.0615 14.112 52.7226 14.352 52.3837 14.544C51.6575 14.88 50.8345 14.88 50.1082 14.544C49.7694 14.4 49.4305 14.16 49.1884 13.872C48.9463 13.584 48.7043 13.248 48.6074 12.912C48.3169 12.144 48.3169 11.328 48.6074 10.56C48.7527 10.224 48.9463 9.888 49.1884 9.6C49.4305 9.312 49.7694 9.12 50.1082 8.928C50.8345 8.592 51.6575 8.592 52.3837 8.928C52.7226 9.072 53.0131 9.312 53.3036 9.552C53.5456 9.84 53.7393 10.128 53.8845 10.512C54.2234 11.328 54.2234 12.192 53.8845 12.912ZM82.8844 11.424C82.4971 11.088 82.1098 10.848 81.6256 10.656C81.1415 10.464 80.6573 10.32 80.1248 10.224L78.1882 9.84C77.7041 9.744 77.3168 9.6 77.1231 9.456C76.9779 9.36 76.8811 9.168 76.8811 8.976C76.8811 8.784 76.9779 8.592 77.2684 8.448C77.6073 8.256 77.9946 8.16 78.3335 8.208C78.8176 8.208 79.3502 8.304 79.7859 8.496C80.2216 8.688 80.6573 8.928 81.0447 9.168C81.6256 9.504 82.1098 9.456 82.4487 9.072L83.3685 8.016C83.5622 7.824 83.659 7.584 83.659 7.344C83.659 7.104 83.5138 6.816 83.3201 6.672C82.9328 6.336 82.3034 5.952 81.432 5.616C80.6089 5.28 79.5438 5.088 78.2851 5.088C77.5104 5.088 76.7842 5.184 76.058 5.424C75.4287 5.616 74.8477 5.904 74.3636 6.288C73.8794 6.624 73.5405 7.104 73.25 7.632C73.008 8.16 72.8627 8.688 72.8627 9.264C72.8627 10.32 73.2016 11.184 73.831 11.808C74.4604 12.432 75.2834 12.864 76.3485 13.056L78.3819 13.488C78.8176 13.584 79.2533 13.68 79.6891 13.872C79.9311 13.968 80.0764 14.16 80.0764 14.448C80.0764 14.688 79.9796 14.88 79.6891 15.072C79.447 15.264 79.0113 15.36 78.4787 15.36C77.9462 15.36 77.3652 15.264 76.8811 15.024C76.3969 14.784 75.9612 14.496 75.5739 14.16C75.3802 14.016 75.1866 13.92 74.9929 13.824C74.7509 13.776 74.4604 13.824 74.1699 14.064L73.0564 14.928C72.7659 15.168 72.5722 15.552 72.6691 15.888C72.7175 16.272 73.0564 16.608 73.5889 17.04C74.9929 18 76.6874 18.48 78.3819 18.432C79.1565 18.432 79.9795 18.336 80.7058 18.096C81.3835 17.904 81.9645 17.616 82.4971 17.184C82.9812 16.8 83.4169 16.32 83.659 15.792C83.9495 15.264 84.0463 14.688 84.0463 14.064C84.0463 13.536 83.9495 13.008 83.7074 12.48C83.5138 12.144 83.2233 11.76 82.8844 11.424ZM94.0195 14.496C93.9227 14.304 93.6806 14.16 93.4386 14.112C93.1965 14.112 92.9544 14.208 92.7608 14.304C92.4703 14.496 92.083 14.64 91.6957 14.64C91.5989 14.64 91.4536 14.64 91.3084 14.592C91.1631 14.592 91.0663 14.496 90.9695 14.4C90.8726 14.304 90.7758 14.16 90.679 14.016C90.5822 13.824 90.5338 13.584 90.5822 13.344V8.736H93.9227C94.1164 8.736 94.31 8.64 94.4553 8.496C94.6005 8.352 94.6973 8.208 94.6973 8.016V6.048C94.6973 5.856 94.6005 5.664 94.4553 5.568C94.31 5.424 94.1648 5.376 93.9711 5.376H90.6306V2.256C90.6306 2.064 90.5822 1.872 90.4369 1.776C90.2917 1.632 90.1464 1.584 89.9528 1.584H87.3869C87.1932 1.584 86.9995 1.632 86.9027 1.776C86.7575 1.92 86.7091 2.112 86.7091 2.256V5.424H85.2567C85.063 5.424 84.8693 5.52 84.7725 5.664C84.6273 5.808 84.5789 5.952 84.5789 6.144V8.112C84.5789 8.304 84.6273 8.448 84.7725 8.592C84.8693 8.736 85.063 8.832 85.2567 8.832H86.7091V14.304C86.7091 14.976 86.8059 15.6 87.0964 16.176C87.3384 16.656 87.6773 17.088 88.0646 17.424C88.452 17.76 88.9361 18 89.4687 18.144C90.0012 18.288 90.5338 18.384 91.0663 18.384C91.7925 18.384 92.4703 18.288 93.1481 18.048C93.7775 17.856 94.3584 17.472 94.7942 17.04C95.0847 16.752 95.1331 16.272 94.891 15.936L94.0195 14.496ZM108.06 5.424H105.494C105.3 5.424 105.155 5.52 105.009 5.616C104.864 5.76 104.816 5.952 104.816 6.144V6.432C104.477 6.048 104.09 5.76 103.654 5.568C102.976 5.232 102.201 5.088 101.427 5.088C99.7808 5.088 98.2315 5.76 97.0696 6.912C96.4886 7.536 96.0045 8.256 95.6656 9.024C95.2783 9.888 95.1331 10.848 95.1331 11.76C95.1331 12.72 95.2783 13.632 95.6656 14.544C96.0045 15.312 96.4886 16.032 97.0696 16.656C98.2315 17.808 99.7808 18.48 101.427 18.48C102.201 18.48 102.976 18.336 103.654 18C104.09 17.76 104.525 17.472 104.816 17.136V17.472C104.816 17.664 104.864 17.808 105.009 17.952C105.155 18.096 105.3 18.144 105.494 18.144H108.06C108.447 18.144 108.737 17.856 108.737 17.472V6.144C108.737 5.952 108.689 5.808 108.544 5.664C108.398 5.472 108.253 5.424 108.06 5.424ZM104.574 12.912C104.429 13.248 104.235 13.584 103.993 13.872C103.702 14.112 103.412 14.352 103.073 14.544C102.734 14.688 102.298 14.784 101.911 14.784C101.524 14.784 101.136 14.688 100.797 14.544C100.459 14.4 100.12 14.16 99.8776 13.872C99.6356 13.584 99.3935 13.248 99.2966 12.912C99.0062 12.144 99.0062 11.328 99.2966 10.56C99.4419 10.224 99.6356 9.888 99.8776 9.6C100.168 9.312 100.459 9.12 100.797 8.928C101.136 8.784 101.524 8.688 101.911 8.688C102.298 8.688 102.686 8.784 103.073 8.928C103.412 9.072 103.702 9.312 103.993 9.552C104.235 9.84 104.477 10.128 104.574 10.512C104.913 11.328 104.913 12.192 104.574 12.912ZM122.1 14.304L120.647 13.2C120.357 12.96 120.115 12.912 119.873 13.008C119.679 13.104 119.485 13.248 119.34 13.392C119.001 13.776 118.662 14.112 118.226 14.4C117.791 14.64 117.307 14.784 116.774 14.736C116.193 14.736 115.66 14.592 115.176 14.256C114.692 13.92 114.353 13.44 114.16 12.912C114.014 12.528 113.966 12.144 113.966 11.76C113.966 11.376 114.014 10.944 114.16 10.56C114.305 10.224 114.499 9.888 114.741 9.6C115.031 9.312 115.322 9.12 115.66 8.976C115.999 8.832 116.435 8.736 116.822 8.736C117.307 8.736 117.839 8.832 118.226 9.072C118.662 9.36 119.001 9.696 119.34 10.08C119.485 10.224 119.679 10.368 119.873 10.464C120.115 10.56 120.357 10.512 120.647 10.272L122.1 9.168C122.293 9.024 122.438 8.88 122.487 8.688C122.584 8.448 122.535 8.208 122.438 8.016C121.857 7.152 121.083 6.432 120.163 5.904C119.195 5.376 118.033 5.088 116.726 5.088C115.806 5.088 114.886 5.28 114.063 5.616C113.24 5.952 112.514 6.432 111.884 7.056C111.255 7.68 110.771 8.4 110.432 9.168C109.754 10.848 109.754 12.768 110.432 14.448C110.771 15.264 111.255 15.984 111.884 16.56C113.191 17.808 114.886 18.48 116.726 18.48C118.033 18.48 119.195 18.192 120.163 17.664C121.083 17.136 121.857 16.416 122.438 15.552C122.584 15.36 122.584 15.12 122.487 14.88C122.39 14.64 122.245 14.448 122.1 14.304ZM135.704 16.944L131.685 11.04L135.123 6.528C135.268 6.336 135.316 6.048 135.268 5.808C135.22 5.616 135.026 5.424 134.639 5.424H131.928C131.782 5.424 131.637 5.472 131.492 5.52C131.298 5.616 131.201 5.712 131.104 5.904L128.345 9.744H127.667V0.672C127.667 0.48 127.619 0.336 127.473 0.192C127.328 0.048 127.183 0 126.989 0H124.423C124.23 0 124.084 0.048 123.939 0.192C123.794 0.336 123.746 0.48 123.746 0.672V17.376C123.746 17.568 123.842 17.76 123.939 17.856C124.084 18 124.23 18.048 124.423 18.048H126.989C127.183 18.048 127.328 17.952 127.473 17.856C127.619 17.712 127.667 17.568 127.667 17.376V12.96H128.393L131.395 17.568C131.589 17.904 131.928 18.096 132.266 18.096H135.123C135.559 18.096 135.752 17.904 135.801 17.712C135.897 17.472 135.849 17.184 135.704 16.944ZM71.8944 5.424H69.038C68.8444 5.424 68.6023 5.472 68.4571 5.664C68.3118 5.808 68.215 5.952 68.215 6.144L66.0848 13.92H65.5522L63.2768 6.096C63.2284 5.952 63.18 5.76 63.0347 5.616C62.8895 5.472 62.6958 5.376 62.5022 5.376H59.5489C59.1616 5.376 58.9196 5.52 58.8227 5.76C58.7259 6 58.7259 6.24 58.8227 6.432L62.4538 17.424C62.5022 17.568 62.599 17.76 62.7442 17.856C62.8895 18 63.0831 18.048 63.2768 18.048H64.826L64.6808 18.384L64.3419 19.392C64.2451 19.68 64.0514 19.968 63.7609 20.208C63.5189 20.4 63.2284 20.496 62.8895 20.496C62.6474 20.496 62.3569 20.448 62.1149 20.352C61.8728 20.256 61.6307 20.112 61.4371 19.968C61.2434 19.824 61.0013 19.776 60.8077 19.776H60.7593C60.4688 19.776 60.2267 19.92 60.1299 20.16L59.21 21.504C58.8227 22.08 59.0648 22.464 59.3069 22.656C59.791 23.088 60.372 23.424 61.0013 23.664C61.6791 23.904 62.4053 24 63.18 24C64.4871 24 65.6007 23.664 66.4237 22.944C67.2951 22.176 67.9245 21.168 68.2634 20.064L72.4754 6.48C72.5722 6.24 72.5722 6 72.4754 5.76C72.4754 5.568 72.2818 5.424 71.8944 5.424Z" fill="#011B33"/>
</g>
<defs>
<clipPath id="clip0_457_2617">
<rect width="135.849" height="24" fill="white"/>
</clipPath>
</defs>
</svg>
