<svg width="89" height="24" viewBox="0 0 89 24" fill="none" xmlns="http://www.w3.org/2000/svg">
<g clip-path="url(#clip0_457_2597)">
<path d="M25.5863 19.6114C21.7913 19.6114 19.5755 18.0175 19.4736 15.0352H23.6761C23.8289 16.0122 24.2619 16.5521 25.5609 16.5521C26.6815 16.5521 27.1909 16.115 27.1909 15.4465C27.1909 14.8038 26.5542 14.4953 24.7204 14.2382C21.1546 13.7755 19.6519 12.7214 19.6519 9.9191C19.6519 6.93683 22.2753 5.49713 25.3571 5.49713C28.6427 5.49713 30.9349 6.62836 31.2405 9.84196H27.1145C26.9362 8.94215 26.4523 8.50511 25.408 8.50511C24.4147 8.50511 23.9053 8.94216 23.9053 9.5592C23.9053 10.2019 24.5166 10.459 26.1467 10.6647C29.8397 11.1274 31.6226 12.1044 31.6226 14.9838C31.6226 18.1717 29.2794 19.6114 25.5863 19.6114ZM41.2684 23.7714V17.2009C40.6035 18.4842 39.1204 19.5879 37.1002 19.5879C34.006 19.5879 31.4744 17.3549 31.4744 12.7093V12.504C31.4744 7.93543 33.9805 5.49713 37.1513 5.49713C39.2482 5.49713 40.5012 6.39546 41.2684 7.75577V5.85649H45.8457V23.7714H41.2684ZM38.6097 16.0457C40.2459 16.0457 41.2528 14.8872 41.2528 12.5958V12.3899C41.2528 10.1243 40.3215 8.91429 38.6601 8.91429C36.9735 8.91429 36.0673 10.0728 36.0673 12.4156V12.6216C36.0673 14.8872 37.049 16.0457 38.6097 16.0457ZM51.3873 19.4629C48.8023 19.4629 46.8828 17.8788 46.8828 14.5064V5.79429H51.4642V13.7655C51.4642 15.2729 52.0529 16.0138 53.3577 16.0138C54.7399 16.0138 55.6358 15.1962 55.6358 13.4845V5.79429H60.2168V19.1563H55.6358V17.0868C54.9192 18.4664 53.6139 19.4629 51.3873 19.4629ZM65.1701 19.6114C62.776 19.6114 60.6615 18.4288 60.6615 15.5751C60.6615 12.4129 63.3109 11.1789 67.743 11.1789H69.017V10.8703C69.017 9.58487 68.7113 8.73649 67.2591 8.73649C66.0111 8.73649 65.5527 9.48206 65.4508 10.3304H61.1709C61.3747 7.09112 63.8966 5.49713 67.5393 5.49713C71.2078 5.49713 73.551 7.01398 73.551 10.5875V19.3029H69.1189V17.7347C68.4821 18.7116 67.31 19.6114 65.1701 19.6114ZM66.8359 16.3429C68.1368 16.3429 69.1066 15.6112 69.1066 14.4759V13.6686H67.9076C66.0709 13.6686 65.2544 14.0218 65.2544 15.1066C65.2544 15.8635 65.7647 16.3429 66.8359 16.3429ZM79.7695 19.6114C76.6754 19.6114 74.1437 17.3811 74.1437 12.741V12.5359C74.1437 7.97275 76.65 5.53734 79.8209 5.53734C81.9177 5.53734 83.1706 6.4346 83.9376 7.79329V0H88.5153V19.3038H83.9376V17.1247C83.273 18.5091 81.7899 19.6114 79.7695 19.6114ZM81.279 16.0457C82.9154 16.0457 83.9224 14.8872 83.9224 12.5958V12.3899C83.9224 10.1243 82.9909 8.91429 81.3295 8.91429C79.6431 8.91429 78.7365 10.0728 78.7365 12.4156V12.6216C78.7365 14.8872 79.7185 16.0457 81.279 16.0457Z" fill="url(#paint0_linear_457_2597)"/>
<path fill-rule="evenodd" clip-rule="evenodd" d="M11.2462 1.953C10.0085 2.55355 8.03521 3.63223 6.74612 4.61548C3.599 7.01519 0.849121 9.61723 0.849121 12.8794C0.849121 16.332 3.54817 19.1566 7.71479 19.6735C8.54156 19.7757 7.84125 20.565 7.84125 20.565C7.84125 20.565 8.38816 20.3887 8.76094 20.2619C8.86909 20.225 9.04821 20.5978 9.04821 20.5978C9.04821 20.5978 9.38381 20.2114 9.41883 20.2377C9.82228 20.5436 10.3618 20.5978 10.3618 20.5978C10.3618 20.5978 9.65002 19.7785 10.5365 19.6602C14.6455 19.1101 17.3003 16.3038 17.3003 12.8794C17.3003 9.44247 15.2374 7.04277 11.235 4.46241C10.7182 4.12928 10.6596 3.18849 11.2462 1.953ZM9.67759 5.41219C11.8027 7.33439 12.8653 9.73625 12.8653 12.1381C12.8653 14.5397 11.8027 16.9415 9.67759 18.8637C12.68 15.1982 13.3103 9.47069 9.67759 5.41219ZM8.45575 5.41155C6.33057 7.33375 5.268 9.73562 5.268 12.1375C5.268 14.5394 6.33057 16.941 8.45575 18.8631C5.45301 15.1976 4.82303 9.47005 8.45575 5.41155ZM9.06682 18.6341C9.22762 16.425 9.30819 14.2159 9.30819 12.0064C9.30819 9.79728 9.22762 7.58815 9.06682 5.37903C8.59799 9.79728 8.59799 14.2159 9.06682 18.6341ZM11.7163 6.13204C14.0754 8.09945 15.4376 10.3659 15.5476 12.554C15.6573 14.7417 14.5148 16.8511 11.8644 18.504C16.5352 14.4455 15.4971 9.96151 11.7163 6.13204ZM6.41702 6.13175C4.05792 8.09881 2.69569 10.3653 2.58568 12.5534C2.47568 14.7411 3.6182 16.8504 6.26861 18.5034C1.5981 14.4449 2.63589 9.96092 6.41702 6.13175Z" fill="url(#paint1_linear_457_2597)"/>
</g>
<defs>
<linearGradient id="paint0_linear_457_2597" x1="19.4736" y1="11.8859" x2="88.5148" y2="11.8859" gradientUnits="userSpaceOnUse">
<stop stop-color="#FF4C1D"/>
<stop offset="1" stop-color="#9B0063"/>
</linearGradient>
<linearGradient id="paint1_linear_457_2597" x1="0.849121" y1="13.0634" x2="82.67" y2="13.0634" gradientUnits="userSpaceOnUse">
<stop stop-color="#FF4C1D"/>
<stop offset="1" stop-color="#9B0063"/>
</linearGradient>
<clipPath id="clip0_457_2597">
<rect width="87.6735" height="24" fill="white" transform="translate(0.849121)"/>
</clipPath>
</defs>
</svg>
