<svg width="83" height="24" viewBox="0 0 83 24" fill="none" xmlns="http://www.w3.org/2000/svg">
<path d="M7.20914 2.32253C7.80512 1.29028 9.29509 1.29028 9.89107 2.32253L13.9139 9.29027C14.5098 10.3225 13.7649 11.6129 12.573 11.6129H4.52726C3.33531 11.6129 2.59034 10.3225 3.18632 9.29027L7.20914 2.32253Z" fill="#0066FF"/>
<path d="M16.0847 21.6774C15.4887 22.7096 13.9987 22.7096 13.4027 21.6774L9.37993 14.7097C8.78395 13.6774 9.52888 12.3871 10.7208 12.3871H18.7666C19.9585 12.3871 20.7034 13.6774 20.1075 14.7097L16.0847 21.6774Z" fill="#99C2FF"/>
<path d="M30.1037 11.6749H28.1837V15.391C28.1837 15.711 28.2559 15.9432 28.4005 16.0878C28.545 16.2219 28.7566 16.2994 29.0353 16.32C29.3243 16.3303 29.6804 16.3252 30.1037 16.3045V17.8065C28.8237 17.9613 27.905 17.8529 27.3476 17.4813C26.7901 17.0994 26.5114 16.4026 26.5114 15.391V11.6749H25.0869V10.0645H26.5114V8.39229L28.1837 7.89681V10.0645H30.1037V11.6749ZM35.6927 9.86326C36.5804 9.86326 37.2978 10.1472 37.8449 10.7149C38.392 11.2826 38.6656 12.062 38.6656 13.0529V17.8065H36.9933V13.2233C36.9933 12.6452 36.8385 12.2013 36.5288 11.8916C36.2191 11.582 35.7959 11.4271 35.2591 11.4271C34.6707 11.4271 34.1958 11.6129 33.8346 11.9845C33.4733 12.3459 33.2927 12.9033 33.2927 13.6568V17.8065H31.6204V6.96777H33.2927V11.0555C33.7984 10.2607 34.5984 9.86326 35.6927 9.86326ZM41.7822 14.6478C41.9061 15.2362 42.19 15.6904 42.6339 16.0104C43.0778 16.32 43.6197 16.4749 44.2597 16.4749C45.1474 16.4749 45.8132 16.1549 46.2571 15.5149L47.6351 16.32C46.8713 17.4452 45.741 18.0078 44.2442 18.0078C42.9849 18.0078 41.968 17.6259 41.1939 16.862C40.4197 16.0878 40.0326 15.1123 40.0326 13.9355C40.0326 12.7794 40.4146 11.8142 41.1784 11.04C41.9423 10.2555 42.9229 9.86326 44.1203 9.86326C45.2558 9.86326 46.1848 10.2607 46.9074 11.0555C47.6403 11.8504 48.0068 12.8155 48.0068 13.951C48.0068 14.1265 47.9862 14.3588 47.9448 14.6478H41.7822ZM41.7668 13.2852H46.319C46.2055 12.6555 45.9423 12.1807 45.5293 11.8607C45.1268 11.5407 44.6519 11.3807 44.1048 11.3807C43.4855 11.3807 42.9694 11.551 42.5564 11.8916C42.1436 12.2323 41.8803 12.6968 41.7668 13.2852Z" fill="#24366B"/>
<path d="M53.8602 9.86328C54.9234 9.86328 55.8318 10.2607 56.5854 11.0555C57.3389 11.84 57.7157 12.8 57.7157 13.9355C57.7157 15.0813 57.3389 16.0465 56.5854 16.831C55.8318 17.6155 54.9234 18.0078 53.8602 18.0078C52.6834 18.0078 51.7802 17.5742 51.1505 16.7072V20.9033H49.4783V10.0646H51.1505V11.1794C51.7802 10.302 52.6834 9.86328 53.8602 9.86328ZM51.8473 15.7162C52.3118 16.1807 52.895 16.413 53.597 16.413C54.2989 16.413 54.8821 16.1807 55.3467 15.7162C55.8112 15.2414 56.0434 14.6478 56.0434 13.9355C56.0434 13.2233 55.8112 12.6349 55.3467 12.1704C54.8821 11.6956 54.2989 11.4581 53.597 11.4581C52.895 11.4581 52.3118 11.6956 51.8473 12.1704C51.3828 12.6349 51.1505 13.2233 51.1505 13.9355C51.1505 14.6478 51.3828 15.2414 51.8473 15.7162ZM60.5474 14.6478C60.6713 15.2362 60.9551 15.6904 61.399 16.0104C61.8429 16.3201 62.3848 16.4749 63.0248 16.4749C63.9126 16.4749 64.5784 16.1549 65.0222 15.5149L66.4003 16.3201C65.6365 17.4452 64.5061 18.0078 63.0093 18.0078C61.75 18.0078 60.7332 17.6259 59.959 16.862C59.1848 16.0878 58.7977 15.1123 58.7977 13.9355C58.7977 12.7794 59.1797 11.8142 59.9435 11.0401C60.7074 10.2556 61.6881 9.86328 62.8854 9.86328C64.021 9.86328 64.95 10.2607 65.6725 11.0555C66.4055 11.8504 66.7719 12.8155 66.7719 13.951C66.7719 14.1265 66.7513 14.3588 66.71 14.6478H60.5474ZM60.5319 13.2852H65.0842C64.9707 12.6556 64.7074 12.1807 64.2945 11.8607C63.8919 11.5407 63.4171 11.3807 62.87 11.3807C62.2506 11.3807 61.7345 11.551 61.3216 11.8917C60.9087 12.2323 60.6455 12.6968 60.5319 13.2852ZM69.5142 14.6478C69.638 15.2362 69.9219 15.6904 70.3658 16.0104C70.8096 16.3201 71.3516 16.4749 71.9916 16.4749C72.8793 16.4749 73.5451 16.1549 73.989 15.5149L75.3671 16.3201C74.6032 17.4452 73.4729 18.0078 71.9761 18.0078C70.7167 18.0078 69.7 17.6259 68.9258 16.862C68.1516 16.0878 67.7645 15.1123 67.7645 13.9355C67.7645 12.7794 68.1464 11.8142 68.9103 11.0401C69.6741 10.2556 70.6548 9.86328 71.8522 9.86328C72.9877 9.86328 73.9167 10.2607 74.6393 11.0555C75.3722 11.8504 75.7387 12.8155 75.7387 13.951C75.7387 14.1265 75.718 14.3588 75.6767 14.6478H69.5142ZM69.4987 13.2852H74.0509C73.9374 12.6556 73.6741 12.1807 73.2613 11.8607C72.8587 11.5407 72.3838 11.3807 71.8367 11.3807C71.2174 11.3807 70.7012 11.551 70.2884 11.8917C69.8754 12.2323 69.6122 12.6968 69.4987 13.2852ZM78.8825 11.3652C79.3052 10.4052 80.1003 9.92522 81.267 9.92522V11.7368C80.6268 11.6956 80.0694 11.8504 79.5948 12.2013C79.1194 12.542 78.8825 13.1097 78.8825 13.9046V17.8065H77.2101V10.0646H78.8825V11.3652Z" fill="#24366B"/>
</svg>
